<svg id="Capa_1" data-name="Capa 1" xmlns="http://www.w3.org/2000/svg" viewBox="0 0 254.02 203.86"><path d="M79.36,146.24,22.06,80.38H85.79V8.43H117.3c0,.71.13,1.46.13,2.21q0,55,0,110a3.21,3.21,0,0,1-1.83,3.14c-11.22,6.93-22.38,14-33.57,20.93C81.16,145.23,80.28,145.71,79.36,146.24Z" transform="translate(-22.06 -8.43)"/><path d="M135.42,169.76c12-7.51,23.83-14.7,35.39-22.25,3.09-2,5-2,8.1.11,27.33,18.4,54.83,36.53,82.28,54.74,4.77,3.16,9.52,6.35,14.89,9.92h-2.46q-36.52,0-73.06-.06a6.67,6.67,0,0,1-3.46-1.07q-29.68-19.78-59.29-39.68C137.09,171,136.41,170.47,135.42,169.76Z" transform="translate(-22.06 -8.43)"/><path d="M225,101.29,78.31,193.93v-3c0-9.48.09-19-.06-28.45a4.33,4.33,0,0,1,2.44-4.27q20.57-12.93,41-26,24-15.24,48-30.47a4.7,4.7,0,0,1,2.39-.75q26,0,51.94,0A6.45,6.45,0,0,1,225,101.29Z" transform="translate(-22.06 -8.43)"/><path d="M115.36,181.79v30.33h-37c0-2.32-.06-4.66.06-7,0-.46.66-1,1.14-1.32q17.28-10.76,34.58-21.46A12.46,12.46,0,0,1,115.36,181.79Z" transform="translate(-22.06 -8.43)"/></svg>