<svg id="Capa_1" data-name="Capa 1" xmlns="http://www.w3.org/2000/svg" viewBox="0 0 446.02 79.26"><path d="M403.55,33.13l-6,9.89q-17.32,28.7-34.65,57.38a1.6,1.6,0,0,1-1.58.95c-3.88,0-7.76,0-11.78,0a9.43,9.43,0,0,1,.41-.88q23.6-38.1,47.18-76.21c.87-1.4,2.2-1.51,3.52-1.54,2.67-.05,5.35,0,8,.14.51,0,1.14.67,1.46,1.19q10.61,17.11,21.14,34.28,12.81,20.81,25.63,41.61c.24.4.47.81.81,1.41h-4.78c-2,0-4-.06-6,0a2,2,0,0,1-2-1.1Q431.89,79,418.77,57.7L404.38,34.29C404.15,33.93,403.88,33.59,403.55,33.13Z" transform="translate(-11.7 -22.57)"/><path d="M115.16,22.81c-1.72,2.92-3.3,5.63-4.89,8.34q-20.31,34.47-40.6,69c-.87,1.47-2.25,1.52-3.5,1.59a57.39,57.39,0,0,1-6.68-.14,3.67,3.67,0,0,1-3.05-2.15q-22-37.65-44-75.27l-.71-1.27c.52,0,.9-.07,1.28-.07,3,0,5.92,0,8.88,0A2,2,0,0,1,23.93,24q18.93,32.38,38,64.72a13.74,13.74,0,0,0,1.71,1.94c1.92-3.35,3.71-6.45,5.48-9.56Q85.32,52.52,101.56,24a2,2,0,0,1,2.07-1.19C107.38,22.85,111.14,22.81,115.16,22.81Z" transform="translate(-11.7 -22.57)"/><path d="M153.35,101.62l4.62-6,28.48-36.54c8.9-11.43,17.85-22.82,26.68-34.31a4.59,4.59,0,0,1,4.36-2.06c3.19.17,6.38,0,9.88,0-1.06,1.4-1.94,2.59-2.85,3.77l-43.22,56q-7.05,9.15-14.08,18.32a1.93,1.93,0,0,1-1.8.9c-1.75-.14-3.51-.27-5.26-.27-2,0-4,.14-5.95.22A6.94,6.94,0,0,1,153.35,101.62Z" transform="translate(-11.7 -22.57)"/><path d="M335.51,23,246.31,84.2,246,84c0-2.34.17-4.69-.05-7-.2-2.17.61-3.39,2.38-4.61,9.86-6.79,19.57-13.78,29.4-20.59,8.81-6.1,17.76-12,26.57-18.12,4.61-3.2,9.06-6.66,13.56-10a5.14,5.14,0,0,1,3.32-1c4.32.06,8.64,0,13,0h1.28Z" transform="translate(-11.7 -22.57)"/><path d="M131.77,22.81h2.68c3.23,0,6.47,0,9.71,0a1.58,1.58,0,0,1,1.14.39c1.84,2.49,3.53,5.1,5.44,7.54,6.63,8.44,13.33,16.83,20,25.23A11.59,11.59,0,0,0,172,57.56c.81.73.72,1.31,0,2.08-2,2.25-4,4.55-6.11,7Z" transform="translate(-11.7 -22.57)"/><path d="M335.86,101.55c-.94-.11-1.47-.21-2-.22-4.32,0-8.65-.18-12.95.09a5.45,5.45,0,0,1-3.73-1.27L281.36,75.24c-1.33-.93-1.33-1.35,0-2.23,2-1.3,4-2.58,6-3.92a1.22,1.22,0,0,1,1.6,0q22.89,15.65,45.82,31.26A7.1,7.1,0,0,1,335.86,101.55Z" transform="translate(-11.7 -22.57)"/><path d="M246.06,61.74V22.66H257v1.17q0,14.69,0,29.39a1.72,1.72,0,0,1-.85,1.65c-3.15,2.11-6.25,4.29-9.37,6.44Z" transform="translate(-11.7 -22.57)"/><path d="M256.9,88.88v12.21c-.9,0-1.77,0-2.63,0-2.51.06-5,.16-7.52.17-.25,0-.7-.54-.72-.85a30.71,30.71,0,0,1,0-3.59,1.14,1.14,0,0,1,.45-.76C249.86,93.7,253.28,91.36,256.9,88.88Z" transform="translate(-11.7 -22.57)"/></svg>